<?xml version="1.0" encoding="UTF-8"?>
<svg width="141px" height="61px" viewBox="0 0 141 61" version="1.1" xmlns="http://www.w3.org/2000/svg" xmlns:xlink="http://www.w3.org/1999/xlink">
    <!-- Generator: Sketch 41 (35326) - http://www.bohemiancoding.com/sketch -->
    <title>cargo-plane</title>
    <desc>Created with Sketch.</desc>
    <defs></defs>
    <g id="Page-1" stroke="none" stroke-width="1" fill="none" fill-rule="evenodd">
        <g id="cargo-plane" fill="#000000">
            <path d="M138.589889,41.9271805 L91.8466639,33.9348045 C89.8519625,25.2723459 82.7311175,18.5836729 73.8308662,17.186406 L71.6894144,1.28650376 C71.6026982,0.643481203 71.0522692,0.163736842 70.401553,0.163736842 L70.3679706,0.163736842 C69.7172545,0.163736842 69.1670555,0.643710526 69.0803393,1.28650376 L66.9386574,17.186406 C58.0386362,18.5834436 50.9177912,25.2723459 48.9228597,33.9348045 L2.18009462,41.9271805 C0.927425775,42.1129323 0,43.1852481 0,44.4481316 L0,44.4958308 C0,45.9036466 1.14456117,47.0445301 2.55640131,47.0445301 L12.6803393,47.0445301 C12.5639511,47.6499436 12.4981664,48.2727857 12.4981664,48.9119098 C12.4981664,54.3688872 16.9351811,58.7927632 22.4086493,58.7927632 C27.8821175,58.7927632 32.3191321,54.3688872 32.3191321,48.9119098 C32.3191321,48.2727857 32.2528874,47.6499436 32.1369592,47.0445301 L49.942062,47.0445301 C53.1984029,55.1242782 61.1167145,60.8360338 70.3852219,60.8360338 C79.6539592,60.8360338 87.5722708,55.1245075 90.8286117,47.0445301 L108.633485,47.0445301 C108.517096,47.6499436 108.451082,48.2727857 108.451082,48.9119098 C108.451082,54.3688872 112.888096,58.7927632 118.361794,58.7927632 C123.835263,58.7927632 128.272277,54.3688872 128.272277,48.9119098 C128.272277,48.2727857 128.206263,47.6499436 128.090104,47.0445301 L138.213812,47.0445301 C139.625883,47.0445301 140.770214,45.9034173 140.770214,44.4958308 L140.770214,44.4481316 C140.769984,43.1852481 139.842788,42.1129323 138.589889,41.9271805 Z M58.7769886,34.1735301 L61.5121126,28.5230038 L79.2581011,28.5230038 L81.9932251,34.1735301 L58.7769886,34.1735301 Z" id="Shape"></path>
        </g>
    </g>
</svg>