<?xml version="1.0" encoding="UTF-8"?>
<svg width="150px" height="129px" viewBox="0 0 150 129" version="1.1" xmlns="http://www.w3.org/2000/svg" xmlns:xlink="http://www.w3.org/1999/xlink">
    <!-- Generator: Sketch 41 (35326) - http://www.bohemiancoding.com/sketch -->
    <title>Fill 1</title>
    <desc>Created with Sketch.</desc>
    <defs></defs>
    <g id="Desktop-Designs" stroke="none" stroke-width="1" fill="none" fill-rule="evenodd">
        <g id="Why-DRA?" transform="translate(-208.000000, -390.000000)" fill="#167EBF">
            <path d="M358,392.678957 L358,515.896586 C358,516.671948 357.743147,517.317682 357.243843,517.819386 C356.742138,518.31869 356.108407,518.568342 355.325844,518.568342 L339.2497,518.568342 C338.469538,518.568342 337.821403,518.31869 337.322099,517.819386 C336.820395,517.317682 336.577944,516.671948 336.577944,515.896586 L336.577944,392.678957 C336.577944,391.898795 336.820395,391.257862 337.322099,390.756157 C337.821403,390.249652 338.469538,390 339.2497,390 L355.325844,390 C356.108407,390 356.742138,390.249652 357.243843,390.756157 C357.743147,391.257862 358,391.898795 358,392.678957 M325.859715,435.537472 L325.859715,515.896586 C325.859715,516.671948 325.602861,517.317682 325.101157,517.819386 C324.601853,518.31869 323.953718,518.568342 323.173556,518.568342 L307.109415,518.568342 C306.326852,518.568342 305.681118,518.31869 305.179413,517.819386 C304.680109,517.317682 304.423256,516.671948 304.423256,515.896586 L304.423256,435.537472 C304.423256,434.75731 304.680109,434.116376 305.179413,433.609871 C305.681118,433.108166 306.326852,432.858515 307.109415,432.858515 L323.173556,432.858515 C323.953718,432.858515 324.601853,433.108166 325.101157,433.609871 C325.602861,434.116376 325.859715,434.75731 325.859715,435.537472 M293.717029,467.677757 L293.717029,515.896586 C293.717029,516.671948 293.462576,517.317682 292.960872,517.819386 C292.461568,518.31869 291.813433,518.568342 291.033271,518.568342 L274.96913,518.568342 C274.186567,518.568342 273.540832,518.31869 273.039128,517.819386 C272.539824,517.317682 272.282971,516.671948 272.282971,515.896586 L272.282971,467.677757 C272.282971,466.897595 272.539824,466.256661 273.039128,465.754957 C273.540832,465.248452 274.186567,464.9988 274.96913,464.9988 L291.033271,464.9988 C291.813433,464.9988 292.461568,465.248452 292.960872,465.754957 C293.462576,466.256661 293.717029,466.897595 293.717029,467.677757 M261.576744,489.107014 L261.576744,515.896586 C261.576744,516.671948 261.319891,517.317682 260.820587,517.819386 C260.318882,518.31869 259.673148,518.568342 258.892986,518.568342 L242.826444,518.568342 C242.034279,518.568342 241.398147,518.31869 240.898843,517.819386 C240.397139,517.317682 240.142686,516.671948 240.142686,515.896586 L240.142686,489.107014 C240.142686,488.326852 240.397139,487.685919 240.898843,487.184214 C241.398147,486.677709 242.034279,486.428057 242.826444,486.428057 L258.892986,486.428057 C259.673148,486.428057 260.318882,486.677709 260.820587,487.184214 C261.319891,487.685919 261.576744,488.326852 261.576744,489.107014 M229.424456,499.820443 L229.424456,515.896586 C229.424456,516.671948 229.179605,517.317682 228.680302,517.819386 C228.178597,518.31869 227.532863,518.568342 226.7503,518.568342 L210.674156,518.568342 C209.893994,518.568342 209.257862,518.31869 208.758558,517.819386 C208.256853,517.317682 208,516.671948 208,515.896586 L208,499.820443 C208,499.045081 208.256853,498.396947 208.758558,497.897643 C209.257862,497.395938 209.893994,497.146286 210.674156,497.146286 L226.7503,497.146286 C227.532863,497.146286 228.178597,497.395938 228.680302,497.897643 C229.179605,498.396947 229.424456,499.045081 229.424456,499.820443" id="Fill-1"></path>
        </g>
    </g>
</svg>