<?xml version="1.0" encoding="UTF-8"?>
<svg width="50px" height="29px" viewBox="0 0 50 29" version="1.1" xmlns="http://www.w3.org/2000/svg" xmlns:xlink="http://www.w3.org/1999/xlink">
    <!-- Generator: Sketch 41 (35326) - http://www.bohemiancoding.com/sketch -->
    <title>Group 3</title>
    <desc>Created with Sketch.</desc>
    <defs>
        <polygon id="path-1" points="28.659402 49.4680851 0 49.4680851 0 25.0284574 0 0.588829787 28.659402 0.588829787"></polygon>
    </defs>
    <g id="Desktop-Designs" stroke="none" stroke-width="1" fill="none" fill-rule="evenodd" opacity="0.703533116">
        <g id="Home" transform="translate(-695.000000, -774.000000)">
            <g id="Group-3" transform="translate(720.000000, 789.000000) rotate(-270.000000) translate(-720.000000, -789.000000) translate(705.000000, 764.000000)">
                <mask id="mask-2" fill="white">
                    <use xlink:href="#path-1"></use>
                </mask>
                <g id="Clip-2"></g>
                <path d="M28.659402,25.0303191 C28.659402,25.4558511 28.493617,25.8308511 28.1647211,26.1553191 L5.21955147,48.9797872 C4.89065555,49.3042553 4.51630247,49.4691489 4.08579643,49.4691489 C3.66331225,49.4691489 3.28093732,49.3042553 2.9573893,48.9797872 L0.494680851,46.5276596 C0.165784934,46.2031915 0,45.8281915 0,45.4053191 C0,44.9797872 0.165784934,44.6047872 0.494680851,44.275 L19.8487349,25.0303191 L0.494680851,5.78031915 C0.165784934,5.45585106 0,5.07819149 0,4.65265957 C0,4.23244681 0.165784934,3.85744681 0.494680851,3.52765957 L2.9573893,1.07819149 C3.28093732,0.753723404 3.66331225,0.588829787 4.08579643,0.588829787 C4.51630247,0.588829787 4.89065555,0.753723404 5.21955147,1.07819149 L28.1647211,23.9026596 C28.493617,24.2297872 28.659402,24.6047872 28.659402,25.0303191" id="Fill-1" fill="#FFFFFF" mask="url(#mask-2)"></path>
            </g>
        </g>
    </g>
</svg>