<?xml version="1.0" encoding="UTF-8"?>
<svg width="150px" height="106px" viewBox="0 0 150 106" version="1.1" xmlns="http://www.w3.org/2000/svg" xmlns:xlink="http://www.w3.org/1999/xlink">
    <!-- Generator: Sketch 41 (35326) - http://www.bohemiancoding.com/sketch -->
    <title>Page 1</title>
    <desc>Created with Sketch.</desc>
    <defs></defs>
    <g id="Desktop-Designs" stroke="none" stroke-width="1" fill="none" fill-rule="evenodd">
        <g id="Why-DRA?" transform="translate(-645.000000, -401.000000)" fill="#167EBF">
            <path d="M732.445172,461.989271 L732.445172,461.658614 L730.46798,435.28369 C730.410621,434.571766 730.110331,433.954315 729.560362,433.431338 C729.010392,432.908361 728.379445,432.648559 727.664147,432.648559 L712.335853,432.648559 C711.620555,432.648559 710.989608,432.908361 710.439638,433.431338 C709.886295,433.954315 709.589379,434.571766 709.53202,435.28369 L707.554828,461.658614 L707.554828,461.989271 C707.497469,462.64721 707.720157,463.197179 708.212767,463.635805 C708.708752,464.077806 709.285714,464.297119 709.943653,464.297119 L730.052973,464.297119 C730.714286,464.297119 731.291248,464.077806 731.787233,463.635805 C732.279843,463.197179 732.499156,462.64721 732.445172,461.989271 M795,500.477023 C795,504.488764 793.734732,506.492948 791.207571,506.492948 L733.187462,506.492948 C733.90276,506.492948 734.50334,506.233147 734.999325,505.710169 C735.491936,505.190566 735.714623,504.573116 735.657264,503.857818 L734.010729,482.756529 C733.953371,482.044605 733.649706,481.427154 733.103111,480.904177 C732.553141,480.3812 731.922194,480.121398 731.210271,480.121398 L708.789729,480.121398 C708.074431,480.121398 707.443485,480.3812 706.896889,480.904177 C706.346919,481.427154 706.043255,482.044605 705.989271,482.756529 L704.339362,503.857818 C704.282003,504.573116 704.50469,505.190566 704.997301,505.710169 C705.493286,506.233147 706.09724,506.492948 706.812538,506.492948 L648.789055,506.492948 C646.261894,506.492948 645,504.488764 645,500.477023 C645,497.511236 645.711924,494.322761 647.14252,490.918348 L681.510561,404.873406 C681.949187,403.830825 682.664485,402.923207 683.653081,402.153924 C684.641676,401.384641 685.687631,401 686.784196,401 L714.724678,401 C714.00938,401 713.378433,401.259802 712.831838,401.782779 C712.278494,402.305756 711.978204,402.923207 711.924219,403.638505 L710.685944,419.462784 C710.631959,420.232067 710.851272,420.863014 711.343883,421.355625 C711.843242,421.851609 712.443822,422.097915 713.15912,422.097915 L726.84088,422.097915 C727.552804,422.097915 728.156758,421.851609 728.652743,421.355625 C729.145354,420.863014 729.368041,420.232067 729.310682,419.462784 L728.075781,403.638505 C728.018422,402.923207 727.721506,402.305756 727.171537,401.782779 C726.618193,401.259802 725.987246,401 725.275322,401 L753.21243,401 C754.312369,401 755.358324,401.384641 756.346919,402.153924 C757.335515,402.923207 758.047439,403.830825 758.489439,404.873406 L792.85748,490.918348 C794.284702,494.322761 795,497.511236 795,500.477023" id="Page-1"></path>
        </g>
    </g>
</svg>