<?xml version="1.0" encoding="UTF-8" standalone="no"?>
<svg width="42px" height="40px" viewBox="0 0 42 40" version="1.1" xmlns="http://www.w3.org/2000/svg" xmlns:xlink="http://www.w3.org/1999/xlink">
    <!-- Generator: Sketch 40.3 (33839) - http://www.bohemiancoding.com/sketch -->
    <title>Page 1</title>
    <desc>Created with Sketch.</desc>
    <defs>
        <polygon id="path-1" points="0.000242424242 39.7129697 41.5551515 39.7129697 41.5551515 0.000242424242 0.000242424242 0.000242424242"></polygon>
    </defs>
    <g id="Desktop-Designs" stroke="none" stroke-width="1" fill="none" fill-rule="evenodd">
        <g id="Footer" transform="translate(-916.000000, -163.000000)">
            <g id="Group-4" transform="translate(1.000000, 49.000000)">
                <g id="Group-2" transform="translate(803.000000, 114.000000)">
                    <g id="Page-1" transform="translate(112.000000, 0.000000)">
                        <mask id="mask-2" fill="white">
                            <use xlink:href="#path-1"></use>
                        </mask>
                        <g id="Clip-2"></g>
                        <path d="M41.5553939,24.3461818 L41.5553939,39.7134545 L32.6547879,39.7134545 L32.6547879,25.3764848 C32.6547879,23.4819394 32.2875152,21.998303 31.5578182,20.9255758 C30.8281212,19.8528485 29.6875152,19.3158788 28.1335758,19.3158788 C26.9978182,19.3158788 26.046303,19.6261818 25.2814545,20.2492121 C24.5153939,20.8698182 23.9432727,21.6419394 23.5650909,22.5607273 C23.3638788,23.1037576 23.265697,23.8334545 23.265697,24.7522424 L23.265697,39.7134545 L14.3650909,39.7134545 C14.4002424,32.5170909 14.4196364,26.6831515 14.4196364,22.2104242 C14.4196364,17.737697 14.4075152,15.0673939 14.3917576,14.2031515 L14.3650909,12.9025455 L23.265697,12.9025455 L23.265697,16.798303 L23.2099394,16.798303 C23.5723636,16.2225455 23.9432727,15.718303 24.3226667,15.2843636 C24.7008485,14.8516364 25.2099394,14.3825455 25.8487273,13.8770909 C26.4887273,13.3728485 27.2729697,12.9801212 28.2050909,12.7001212 C29.1323636,12.4213333 30.1650909,12.2819394 31.3020606,12.2819394 C34.3832727,12.2819394 36.8644848,13.3049697 38.7384242,15.3510303 C40.616,17.398303 41.5553939,20.3970909 41.5553939,24.3461818 L41.5553939,24.3461818 Z M0.512969697,39.7134545 L9.44145455,39.7134545 L9.44145455,12.9037576 L0.512969697,12.9037576 L0.512969697,39.7134545 Z M10.0087273,4.62618182 C10.0293333,5.94133333 9.57115152,7.04193939 8.64387879,7.92557576 C7.7129697,8.80921212 6.49357576,9.25163636 4.97842424,9.25163636 L4.92387879,9.25163636 C3.44387879,9.25163636 2.25236364,8.80921212 1.3529697,7.92557576 C0.449939394,7.04193939 0.000242424242,5.94133333 0.000242424242,4.62618182 C0.000242424242,3.29042424 0.46569697,2.18618182 1.3929697,1.31224242 C2.32387879,0.435878788 3.53478788,-0.000484848485 5.03054545,-0.000484848485 C6.52993939,-0.000484848485 7.72872727,0.435878788 8.62812121,1.31224242 C9.53115152,2.18618182 9.9929697,3.29042424 10.0087273,4.62618182 L10.0087273,4.62618182 Z" id="Fill-1" fill="#FEFEFE" mask="url(#mask-2)"></path>
                    </g>
                </g>
            </g>
        </g>
    </g>
</svg>