<?xml version="1.0" encoding="UTF-8"?>
<svg width="64px" height="95px" viewBox="0 0 64 95" version="1.1" xmlns="http://www.w3.org/2000/svg" xmlns:xlink="http://www.w3.org/1999/xlink">
    <!-- Generator: Sketch 41 (35326) - http://www.bohemiancoding.com/sketch -->
    <title>Fill 1</title>
    <desc>Created with Sketch.</desc>
    <defs></defs>
    <g id="Page-1" stroke="none" stroke-width="1" fill="none" fill-rule="evenodd">
        <g id="Why-DRA?" transform="translate(-525.000000, -1913.000000)" fill="#FFFFFF">
            <path d="M567.885323,1955.68452 C570.980161,1952.60417 572.525484,1948.88939 572.525484,1944.536 C572.525484,1940.1847 570.980161,1936.46783 567.885323,1933.38748 C564.790484,1930.30713 561.056129,1928.76904 556.684355,1928.76904 C552.310484,1928.76904 548.578226,1930.30713 545.483387,1933.38748 C542.388548,1936.46783 540.843226,1940.1847 540.843226,1944.536 C540.843226,1948.88939 542.388548,1952.60417 545.483387,1955.68452 C548.578226,1958.76487 552.310484,1960.30504 556.684355,1960.30504 C561.056129,1960.30504 564.790484,1958.76487 567.885323,1955.68452 M588.36871,1944.536 C588.36871,1949.01252 587.687258,1952.68765 586.326452,1955.56139 L563.800806,2003.23583 C563.140323,2004.59026 562.161129,2005.65878 560.861129,2006.43722 C559.561129,2007.21774 558.168871,2007.608 556.684355,2007.608 C555.199839,2007.608 553.807581,2007.21774 552.507581,2006.43722 C551.207581,2005.65878 550.247258,2004.59026 549.62871,2003.23583 L527.042258,1955.56139 C525.681452,1952.68765 525,1949.01252 525,1944.536 C525,1935.8313 528.092742,1928.39757 534.282419,1922.23896 C540.47,1916.07826 547.936613,1913 556.684355,1913 C565.43,1913 572.89871,1916.07826 579.08629,1922.23896 C585.273871,1928.39757 588.36871,1935.8313 588.36871,1944.536" id="Fill-1"></path>
        </g>
    </g>
</svg>