<?xml version="1.0" encoding="UTF-8" standalone="no"?>
<svg width="49px" height="69px" viewBox="0 0 49 69" version="1.1" xmlns="http://www.w3.org/2000/svg" xmlns:xlink="http://www.w3.org/1999/xlink">
    <!-- Generator: Sketch 40.3 (33839) - http://www.bohemiancoding.com/sketch -->
    <title>Shape</title>
    <desc>Created with Sketch.</desc>
    <defs></defs>
    <g id="Desktop-Designs" stroke="none" stroke-width="1" fill="none" fill-rule="evenodd">
        <g id="Contact" transform="translate(-965.000000, -447.000000)" fill="#FFFFFF">
            <path d="M989.5,449.3 C1001.34194,449.3 1010.97442,458.585096 1010.97442,470.00002 C1010.97442,473.63168 1009.97706,477.210494 1008.08731,480.35003 L989.5,511.3977 L970.910313,480.345373 C969.022948,477.209377 968.025581,473.63168 968.025581,470.00002 C968.025581,458.585096 977.658061,449.3 989.5,449.3 L989.5,449.3 Z M989.5,476.9 C993.447714,476.9 996.65814,473.805355 996.65814,470.000005 C996.65814,466.196945 993.447714,463.1023 989.5,463.1023 C985.552286,463.1023 982.34186,466.196945 982.34186,470.000005 C982.34186,473.805355 985.552286,476.9 989.5,476.9 L989.5,476.9 Z M989.5,447 C976.323058,447 965.639535,457.300527 965.639535,469.999977 C965.639535,474.195177 966.808698,478.11555 968.846381,481.5 L989.5,516 L1010.15362,481.5 C1012.19011,478.11555 1013.36047,474.195177 1013.36047,469.999977 C1013.36047,457.300527 1002.67694,447 989.5,447 L989.5,447 L989.5,447 Z M989.5,474.6 C986.864612,474.6 984.727907,472.54035 984.727907,470 C984.727907,467.46195 986.864612,465.4023 989.5,465.4023 C992.135388,465.4023 994.272093,467.46195 994.272093,470 C994.272093,472.54035 992.135388,474.6 989.5,474.6 L989.5,474.6 L989.5,474.6 Z" id="Shape"></path>
        </g>
    </g>
</svg>