<?xml version="1.0" encoding="UTF-8" standalone="no"?>
<svg width="50px" height="75px" viewBox="0 0 50 75" version="1.1" xmlns="http://www.w3.org/2000/svg" xmlns:xlink="http://www.w3.org/1999/xlink">
    <!-- Generator: Sketch 40.3 (33839) - http://www.bohemiancoding.com/sketch -->
    <title>Fill 3</title>
    <desc>Created with Sketch.</desc>
    <defs></defs>
    <g id="Desktop-Designs" stroke="none" stroke-width="1" fill="none" fill-rule="evenodd">
        <g id="Home" transform="translate(-261.000000, -2742.000000)" fill="#FFFFFF">
            <g id="Group-23" transform="translate(0.000000, 2462.000000)">
                <path d="M294.837151,313.837151 C297.277647,311.395251 298.498597,308.450937 298.498597,305 C298.498597,301.549063 297.277647,298.603346 294.837151,296.161446 C292.396654,293.72095 289.449534,292.5 285.998597,292.5 C282.549063,292.5 279.603346,293.72095 277.161446,296.161446 C274.719546,298.603346 273.5,301.549063 273.5,305 C273.5,308.450937 274.719546,311.395251 277.161446,313.837151 C279.603346,316.27905 282.549063,317.498597 285.998597,317.498597 C289.449534,317.498597 292.396654,316.27905 294.837151,313.837151 M311,305 C311,308.547771 310.462501,311.46121 309.387504,313.740317 L291.614966,351.532222 C291.092904,352.605816 290.319636,353.453464 289.295161,354.070955 C288.269283,354.689851 287.170428,355 285.998597,355 C284.826765,355 283.729314,354.689851 282.703436,354.070955 C281.677557,353.453464 280.921129,352.605816 280.43275,351.532222 L262.611092,313.740317 C261.536095,311.46121 261,308.547771 261,305 C261,298.099528 263.440496,292.206691 268.322892,287.322892 C273.206691,282.440496 279.098125,280 285.998597,280 C292.900472,280 298.791905,282.440496 303.675705,287.322892 C308.556697,292.206691 311,298.099528 311,305" id="Fill-3"></path>
            </g>
        </g>
    </g>
</svg>