<?xml version="1.0" encoding="UTF-8"?>
<svg width="150px" height="129px" viewBox="0 0 150 129" version="1.1" xmlns="http://www.w3.org/2000/svg" xmlns:xlink="http://www.w3.org/1999/xlink">
    <!-- Generator: Sketch 41 (35326) - http://www.bohemiancoding.com/sketch -->
    <title>Fill 1</title>
    <desc>Created with Sketch.</desc>
    <defs></defs>
    <g id="Desktop-Designs" stroke="none" stroke-width="1" fill="none" fill-rule="evenodd">
        <g id="Why-DRA?" transform="translate(-1077.000000, -390.000000)" fill="#167EBF">
            <path d="M1205.57388,483.37742 L1205.57388,403.558113 C1183.58619,420.404082 1162.16007,429.969797 1141.28408,432.255259 L1141.28408,454.846385 C1162.32625,457.189126 1183.75237,466.697562 1205.57388,483.37742 L1205.57388,483.37742 Z M1216.28408,432.839512 C1219.24671,432.839512 1221.76811,433.887731 1223.85972,435.978441 C1225.95706,438.069152 1227,440.595188 1227,443.550822 C1227,446.506456 1225.95706,449.032493 1223.85972,451.123203 C1221.76811,453.213913 1219.24671,454.262132 1216.28408,454.262132 L1216.28408,486.390334 C1216.28408,489.288689 1215.22968,491.797541 1213.10368,493.916891 C1210.98342,496.036241 1208.47349,497.101644 1205.57388,497.101644 C1182.30257,477.746823 1159.64441,467.144344 1137.60513,465.305665 C1134.36744,466.36534 1131.82885,468.204019 1129.98938,470.827431 C1128.14418,473.450843 1127.27888,476.251822 1127.38776,479.236096 C1127.50237,482.22037 1128.6198,484.797958 1130.74007,486.974587 C1129.62263,488.813267 1128.98655,490.646218 1128.81464,492.456258 C1128.64846,494.266297 1128.81464,495.887314 1129.31892,497.307851 C1129.81747,498.728389 1130.75153,500.263485 1132.12683,501.907414 C1133.49068,503.551342 1134.82587,504.948968 1136.14387,506.094562 C1137.45041,507.240157 1139.16381,508.64351 1141.28408,510.316079 C1139.66809,513.552383 1136.55646,515.866485 1131.95492,517.26411 C1127.35338,518.656008 1122.64869,518.976774 1117.84658,518.220682 C1113.0502,517.470317 1109.36553,515.923764 1106.80402,513.581023 C1106.40862,512.297957 1105.58917,509.857841 1104.3342,506.260673 C1103.0735,502.663506 1102.18528,500.028639 1101.65235,498.35607 C1101.11942,496.677774 1100.48334,494.197562 1099.72693,490.903977 C1098.97051,487.61612 1098.55792,484.797958 1098.47769,482.455217 C1098.39173,480.112475 1098.48915,477.368776 1098.76421,474.212663 C1099.045,471.068006 1099.65816,467.980628 1100.60941,464.967714 L1090.39204,464.967714 C1086.7131,464.967714 1083.56135,463.661736 1080.93681,461.038324 C1078.31227,458.414913 1077,455.264527 1077,451.581441 L1077,435.520204 C1077,431.837117 1078.31227,428.686731 1080.93681,426.06332 C1083.56135,423.445636 1086.7131,422.13393 1090.39204,422.13393 L1130.57388,422.13393 C1154.84803,422.13393 1179.84994,411.42262 1205.57388,390 C1208.47349,390 1210.98342,391.059675 1213.10368,393.179025 C1215.22968,395.304103 1216.28408,397.812956 1216.28408,400.71131 L1216.28408,432.839512 Z" id="Fill-1"></path>
        </g>
    </g>
</svg>