<?xml version="1.0" encoding="UTF-8"?>
<svg width="81px" height="81px" viewBox="0 0 81 81" version="1.1" xmlns="http://www.w3.org/2000/svg" xmlns:xlink="http://www.w3.org/1999/xlink">
    <!-- Generator: Sketch 41 (35326) - http://www.bohemiancoding.com/sketch -->
    <title>Fill 1</title>
    <desc>Created with Sketch.</desc>
    <defs></defs>
    <g id="Page-1" stroke="none" stroke-width="1" fill="none" fill-rule="evenodd">
        <g id="Why-DRA?" transform="translate(-840.000000, -1924.000000)" fill="#FFFFFF">
            <path d="M919.533683,1925.47114 C921.22762,1927.47449 921.4587,1930.32579 920.226924,1934.02503 C918.99319,1937.72428 916.913466,1941.03969 913.985795,1943.96736 L904.679914,1953.27129 L913.927046,1993.49886 C914.11896,1994.23126 913.88788,1994.86771 913.233805,1995.40625 L905.835316,2000.95413 C905.565069,2001.18717 905.198866,2001.30271 904.736705,2001.30271 C904.581999,2001.30271 904.448834,2001.28313 904.333293,2001.24396 C903.753634,2001.12842 903.350223,2000.82097 903.119142,2000.31964 L886.992473,1970.95873 L872.023164,1985.92804 L875.087917,1997.14131 C875.279831,1997.79538 875.125124,1998.39267 874.623798,1998.9312 L869.07591,2004.48105 C868.729289,2004.82767 868.286712,2005 867.746219,2005 L867.630678,2005 C867.052977,2004.92363 866.590817,2004.67296 866.244196,2004.24997 L855.320752,1989.68407 L840.754855,1978.76063 C840.33186,1978.49234 840.081197,1978.0478 840.004823,1977.43094 C839.965656,1976.93157 840.139946,1976.44786 840.523774,1975.9857 L846.07362,1970.38103 C846.420241,1970.03245 846.862818,1969.86012 847.403312,1969.86012 C847.634392,1969.86012 847.78714,1969.8797 847.863514,1969.91691 L859.076788,1972.98166 L874.046097,1958.01235 L844.68518,1941.88568 C844.144686,1941.57823 843.817649,1941.11607 843.702109,1940.4992 C843.625735,1939.88233 843.800024,1939.36338 844.223019,1938.93843 L851.621508,1931.53994 C852.160043,1931.04057 852.739702,1930.88586 853.356569,1931.07778 L891.790328,1940.26812 L901.03746,1931.01903 C903.965131,1928.09136 907.280547,1926.01163 910.979792,1924.7779 C914.679036,1923.54612 917.530333,1923.7772 919.533683,1925.47114" id="Fill-1"></path>
        </g>
    </g>
</svg>