<?xml version="1.0" encoding="UTF-8" standalone="no"?>
<svg width="20px" height="20px" viewBox="0 0 20 20" version="1.1" xmlns="http://www.w3.org/2000/svg" xmlns:xlink="http://www.w3.org/1999/xlink">
    <!-- Generator: Sketch 40.3 (33839) - http://www.bohemiancoding.com/sketch -->
    <title>Fill 1</title>
    <desc>Created with Sketch.</desc>
    <defs></defs>
    <g id="Desktop-Designs" stroke="none" stroke-width="1" fill="none" fill-rule="evenodd">
        <g id="Main-Navigation" transform="translate(-843.000000, -18.000000)" fill="#7D7D7C">
            <g id="Group-2" transform="translate(0.000000, 7.000000)">
                <path d="M855.265997,23.2659966 C856.319573,22.2124204 856.845464,20.9452571 856.845464,19.4609172 C856.845464,17.9801669 856.319573,16.7112088 855.265997,15.6576326 C854.21242,14.6040564 852.943462,14.0763708 851.460917,14.0763708 C849.980167,14.0763708 848.711209,14.6040564 847.657633,15.6576326 C846.604056,16.7112088 846.076371,17.9801669 846.076371,19.4609172 C846.076371,20.9452571 846.604056,22.2124204 847.657633,23.2659966 C848.711209,24.3195728 849.980167,24.8454635 851.460917,24.8454635 C852.943462,24.8454635 854.21242,24.3195728 855.265997,23.2659966 M863,29.4618146 C863,29.8782195 862.847438,30.2389841 862.544108,30.5441084 C862.238984,30.8474379 861.87822,31 861.461815,31 C861.029256,31 860.668491,30.8474379 860.379521,30.5441084 L856.256753,26.4321098 C854.822669,27.4264561 853.223459,27.9236292 851.460917,27.9236292 C850.315804,27.9236292 849.220946,27.7010679 848.174549,27.2559454 C847.128152,26.8108229 846.227138,26.2113434 845.469712,25.4539173 C844.712286,24.6964911 844.111011,23.7936821 843.667684,22.7490801 C843.222561,21.7026833 843,20.6078255 843,19.4609172 C843,18.3158036 843.222561,17.219151 843.667684,16.174549 C844.111011,15.1281522 844.712286,14.2271381 845.469712,13.4697119 C846.227138,12.7140806 847.128152,12.1128062 848.174549,11.6676837 C849.220946,11.2225612 850.315804,11 851.460917,11 C852.607826,11 853.702683,11.2225612 854.74908,11.6676837 C855.793682,12.1128062 856.696491,12.7140806 857.453917,13.4697119 C858.211343,14.2271381 858.812618,15.1281522 859.255945,16.174549 C859.701068,17.219151 859.923629,18.3158036 859.923629,19.4609172 C859.923629,21.2252535 859.424661,22.8226689 858.433905,24.2567531 L862.556672,28.3795208 C862.852822,28.6756708 863,29.0364354 863,29.4618146" id="Fill-1"></path>
            </g>
        </g>
    </g>
</svg>