<?xml version="1.0" encoding="UTF-8" standalone="no"?>
<svg width="50px" height="40px" viewBox="0 0 50 40" version="1.1" xmlns="http://www.w3.org/2000/svg" xmlns:xlink="http://www.w3.org/1999/xlink">
    <!-- Generator: Sketch 40.3 (33839) - http://www.bohemiancoding.com/sketch -->
    <title>Fill 1</title>
    <desc>Created with Sketch.</desc>
    <defs></defs>
    <g id="Desktop-Designs" stroke="none" stroke-width="1" fill="none" fill-rule="evenodd">
        <g id="Footer" transform="translate(-804.000000, -163.000000)" fill="#FEFEFE">
            <g id="Group-4" transform="translate(1.000000, 49.000000)">
                <g id="Group-2" transform="translate(803.000000, 114.000000)">
                    <path d="M49.2509101,4.74936992 C47.8521423,6.7908149 46.1649398,8.53262391 44.1879025,9.9691963 C44.2061047,10.2618314 44.2201064,10.6986838 44.2201064,11.2825539 C44.2201064,13.9890787 43.8224587,16.6942033 43.0299636,19.3895267 C42.2374685,22.0904509 41.0347242,24.6779614 39.4203304,27.1548586 C37.8073369,29.6373565 35.8849062,31.8286194 33.6558387,33.7342481 C31.4267712,35.641277 28.7384486,37.1604593 25.5936712,38.2987959 C22.4446934,39.432932 19.0814898,40 15.49986,40 C9.85298236,40 4.6849622,38.4892187 0,35.4676561 C0.729487539,35.5516662 1.54018482,35.5936712 2.43769252,35.5936712 C7.12265472,35.5936712 11.3021563,34.1556987 14.966396,31.2825539 C12.7793335,31.2405489 10.8232988,30.5684682 9.09129095,29.2649118 C7.36488379,27.9641557 6.17474097,26.3035564 5.52786334,24.2817138 C6.21674601,24.3867264 6.85382246,24.4371325 7.43769252,24.4371325 C8.33099972,24.4371325 9.21870624,24.3237188 10.0938113,24.0926911 C7.76113134,23.6138337 5.82889947,22.4516942 4.29711565,20.6090731 C2.76673201,18.7650518 2.0008401,16.6255951 2.0008401,14.1879025 L2.0008401,14.0618874 C3.41360963,14.8557827 4.93559227,15.2814338 6.56258751,15.3430412 C5.18622235,14.4273313 4.09269112,13.2301876 3.28059367,11.7488099 C2.46569588,10.2702324 2.05964716,8.66704004 2.05964716,6.93643237 C2.05964716,5.1050126 2.52030244,3.40660879 3.43601232,1.84402128 C5.95631476,4.94819378 9.02408289,7.43349202 12.6379165,9.29711565 C16.2517502,11.1621395 20.124615,12.1982638 24.2495099,12.4054887 C24.0814898,11.6143937 23.9988799,10.8443013 23.9988799,10.0924111 C23.9988799,7.30187623 24.983198,4.92299076 26.9518342,2.95435452 C28.9204705,0.985718286 31.2993559,0 34.0926911,0 C37.0092411,0 39.466536,1.06272753 41.4673761,3.18818258 C43.7370484,2.75133016 45.8737048,1.93783254 47.8745449,0.750490059 C47.1044525,3.14477737 45.6230748,5 43.4360123,6.31195743 C45.3724447,6.10473257 47.3088771,5.58387006 49.2509101,4.74936992" id="Fill-1"></path>
                </g>
            </g>
        </g>
    </g>
</svg>