<?xml version="1.0" encoding="UTF-8" standalone="no"?>
<svg width="81px" height="75px" viewBox="0 0 81 75" version="1.1" xmlns="http://www.w3.org/2000/svg" xmlns:xlink="http://www.w3.org/1999/xlink">
    <!-- Generator: Sketch 40.3 (33839) - http://www.bohemiancoding.com/sketch -->
    <title>Fill 5</title>
    <desc>Created with Sketch.</desc>
    <defs></defs>
    <g id="Desktop-Designs" stroke="none" stroke-width="1" fill="none" fill-rule="evenodd">
        <g id="Home" transform="translate(-1114.000000, -2742.000000)" fill="#FFFFFF">
            <g id="Group-23" transform="translate(0.000000, 2462.000000)">
                <path d="M1194.35783,316.203246 C1194.35783,318.379339 1193.57713,320.032158 1192.01453,321.162908 C1190.45193,322.292455 1188.52605,322.85783 1186.23929,322.85783 L1180.63004,322.85783 C1177.75626,319.425884 1174.05967,317.640742 1169.53907,317.5 C1171.79937,314.23526 1172.93012,310.664977 1172.93012,306.785542 C1172.93012,305.977176 1172.85915,305.055736 1172.72081,304.023625 C1174.56129,304.665988 1176.4174,304.985966 1178.28675,304.985966 C1179.93235,304.985966 1181.59359,304.686437 1183.26686,304.086178 C1184.94133,303.487121 1186.30184,302.894078 1187.34838,302.308254 C1188.39373,301.721226 1189.0012,301.428915 1189.16961,301.428915 C1192.62802,301.428915 1194.35783,306.353692 1194.35783,316.203246 M1185.86277,283.139636 C1187.95466,285.231523 1189.0012,287.757667 1189.0012,290.714458 C1189.0012,293.672451 1187.95466,296.197392 1185.86277,298.28928 C1183.76968,300.38237 1181.24474,301.428915 1178.28675,301.428915 C1175.32875,301.428915 1172.80381,300.38237 1170.71192,298.28928 C1168.61883,296.197392 1167.57229,293.672451 1167.57229,290.714458 C1167.57229,287.757667 1168.61883,285.231523 1170.71192,283.139636 C1172.80381,281.046545 1175.32875,280 1178.28675,280 C1181.24474,280 1183.76968,281.046545 1185.86277,283.139636 M1165.54295,295.422708 C1168.68139,298.561141 1170.2512,302.349153 1170.2512,306.785542 C1170.2512,311.221932 1168.68139,315.009944 1165.54295,318.14958 C1162.40452,321.288012 1158.6153,322.85783 1154.18012,322.85783 C1149.74253,322.85783 1145.95572,321.288012 1142.81608,318.14958 C1139.67765,315.009944 1138.10783,311.221932 1138.10783,306.785542 C1138.10783,302.349153 1139.67765,298.561141 1142.81608,295.422708 C1145.95572,292.284275 1149.74253,290.714458 1154.18012,290.714458 C1158.6153,290.714458 1162.40452,292.284275 1165.54295,295.422708 M1183.64458,344.160438 C1183.64458,347.509383 1182.62449,350.15221 1180.58914,352.091326 C1178.55139,354.030442 1175.84481,355 1172.4694,355 L1135.88964,355 C1132.51302,355 1129.80644,354.030442 1127.77109,352.091326 C1125.73213,350.15221 1124.71446,347.509383 1124.71446,344.160438 C1124.71446,342.682043 1124.76378,341.238532 1124.86121,339.828703 C1124.95865,338.420078 1125.15473,336.89958 1125.44704,335.26721 C1125.74055,333.63484 1126.10985,332.12156 1126.55614,330.726166 C1127.00242,329.330772 1127.60268,327.971467 1128.35571,326.645843 C1129.10995,325.320219 1129.97485,324.190672 1130.95042,323.254796 C1131.9272,322.320123 1133.1205,321.574309 1134.52913,321.016151 C1135.93896,320.457994 1137.49434,320.178915 1139.19648,320.178915 C1139.47435,320.178915 1140.07461,320.479647 1140.99605,321.078703 C1141.91629,321.678963 1142.93397,322.348993 1144.05149,323.087589 C1145.16539,323.827388 1146.65943,324.497418 1148.52877,325.096475 C1150.39812,325.696734 1152.2807,325.996263 1154.18012,325.996263 C1156.07713,325.996263 1157.95971,325.696734 1159.82906,325.096475 C1161.6984,324.497418 1163.19123,323.827388 1164.30875,323.087589 C1165.42266,322.348993 1166.44274,321.678963 1167.36298,321.078703 C1168.28322,320.479647 1168.88348,320.178915 1169.16256,320.178915 C1170.86469,320.178915 1172.42008,320.457994 1173.82991,321.016151 C1175.23733,321.574309 1176.43063,322.320123 1177.40741,323.254796 C1178.38418,324.190672 1179.24909,325.320219 1180.00212,326.645843 C1180.75515,327.971467 1181.35541,329.330772 1181.80169,330.726166 C1182.24918,332.12156 1182.61848,333.63484 1182.91079,335.26721 C1183.20551,336.89958 1183.39918,338.420078 1183.49782,339.828703 C1183.59526,341.238532 1183.64458,342.682043 1183.64458,344.160438 M1137.64711,283.139636 C1139.7402,285.231523 1140.78675,287.757667 1140.78675,290.714458 C1140.78675,293.672451 1139.7402,296.197392 1137.64711,298.28928 C1135.55402,300.38237 1133.02908,301.428915 1130.07229,301.428915 C1127.11429,301.428915 1124.58935,300.38237 1122.49626,298.28928 C1120.40317,296.197392 1119.35663,293.672451 1119.35663,290.714458 C1119.35663,287.757667 1120.40317,285.231523 1122.49626,283.139636 C1124.58935,281.046545 1127.11429,280 1130.07229,280 C1133.02908,280 1135.55402,281.046545 1137.64711,283.139636 M1138.81876,317.5 C1134.29817,317.640742 1130.60158,319.425884 1127.72779,322.85783 L1122.11975,322.85783 C1119.83178,322.85783 1117.9059,322.292455 1116.3433,321.162908 C1114.7819,320.032158 1114,318.379339 1114,316.203246 C1114,306.353692 1115.72981,301.428915 1119.19062,301.428915 C1119.35663,301.428915 1119.9641,301.721226 1121.01065,302.308254 C1122.0572,302.894078 1123.4165,303.487121 1125.09097,304.086178 C1126.76545,304.686437 1128.42428,304.985966 1130.07229,304.985966 C1131.94043,304.985966 1133.79655,304.665988 1135.63943,304.023625 C1135.49748,305.055736 1135.42892,305.977176 1135.42892,306.785542 C1135.42892,310.664977 1136.55846,314.23526 1138.81876,317.5" id="Fill-5"></path>
            </g>
        </g>
    </g>
</svg>